<?xml version="1.0" encoding="utf-8"?>
<!-- Generator: Adobe Illustrator 27.7.0, SVG Export Plug-In . SVG Version: 6.00 Build 0)  -->
<svg version="1.1" id="Capa_1" xmlns="http://www.w3.org/2000/svg" xmlns:xlink="http://www.w3.org/1999/xlink" x="0px" y="0px"
	 viewBox="0 0 512 512" style="enable-background:new 0 0 512 512;" xml:space="preserve">
<style type="text/css">
	.st0{fill:#FFFFFF;}
</style>
<g transform="translate(0.000000,512.000000) scale(0.100000,-0.100000)">
	<path class="st0" d="M-1,4355.7v-764.3l1630.1-2.3l1630.1-3.5l43.9-33.1c66.2-50.6,100.5-129.7,99.4-229.8
		c-1.1-112.2-22.3-164-88.5-216.6l-34.6-26.5l-1520-5.5l-1521.1-5.5L235,1531.5L232.9-4.6h797.8h797.8v819v819.8h69.1h69.1
		l746.7-819l745.9-819h831.2h829.7v742.2v742.2h-631.9h-633.2L3658.9,1751c-107.7,148.4-198,275-201.2,282.5
		c-3.2,8.9,32.4,20.7,110.9,37.4c225.7,47.5,476.6,156.2,654.2,284.8c184,133.2,352.8,345.2,429.8,543.1
		c59.8,151.6,83.5,271.5,88.5,468.6C4765.5,4182,4410.9,4776,3759.4,5009c-121,44-310,84.6-458.3,99c-75.2,7.8-678.9,12.1-1709,12.1
		H-1.3L-1,4355.7L-1,4355.7z"/>
</g>
</svg>
